<svg width="24" height="24" viewBox="0 0 24 24" fill="none" xmlns="http://www.w3.org/2000/svg">
<path fill-rule="evenodd" clip-rule="evenodd" d="M18.5 10.5249C18.19 10.5249 17.9 10.3249 17.8 10.0349L17.54 9.3349C17.23 8.4949 17.08 8.1149 16.87 7.8949C16.67 7.6949 16.31 7.5549 15.44 7.2349L14.75 6.9849C14.6065 6.93122 14.4822 6.83594 14.3931 6.71124C14.3041 6.58653 14.2542 6.43809 14.25 6.2849C14.24 5.9749 14.44 5.6849 14.74 5.5749L15.44 5.3149C16.31 4.9949 16.67 4.8549 16.88 4.6449C17.09 4.4349 17.23 4.0549 17.54 3.2049L17.8 2.5149C17.91 2.2249 18.19 2.0249 18.5 2.0249C18.81 2.0249 19.09 2.2149 19.2 2.5149L19.46 3.2049C19.77 4.0549 19.92 4.4349 20.13 4.6549C20.33 4.8549 20.69 4.9949 21.56 5.3149L22.26 5.5749C22.55 5.6849 22.75 5.9649 22.75 6.2849C22.75 6.6049 22.55 6.8749 22.25 6.9849L21.55 7.2349C20.69 7.5549 20.33 7.6949 20.12 7.9049C19.91 8.1149 19.77 8.4949 19.46 9.3449L19.2 10.0449C19.09 10.3349 18.81 10.5349 18.5 10.5349V10.5249ZM17.08 6.2649C17.42 6.4249 17.69 6.5949 17.92 6.8249C18.16 7.0649 18.33 7.3449 18.49 7.6849C18.65 7.3449 18.82 7.0749 19.05 6.8349C19.29 6.5949 19.56 6.4249 19.9 6.2649C19.56 6.1049 19.29 5.9349 19.06 5.7049C18.82 5.4549 18.65 5.1849 18.49 4.8449C18.33 5.1849 18.16 5.4549 17.93 5.6949C17.69 5.9349 17.42 6.1049 17.08 6.2649ZM11.5 23.5249C6.84 23.5249 4.51 23.5249 2.91 22.1649C1.25 20.7749 1.25 18.6449 1.25 14.7749C1.25 10.9049 1.25 8.7649 2.91 7.3749C4.51 6.0249 6.85 6.0249 11.5 6.0249C11.91 6.0249 12.25 6.3649 12.25 6.7749C12.25 7.1849 11.91 7.5249 11.5 7.5249C7.21 7.5249 5.06 7.5249 3.87 8.5149C2.79 9.4249 2.75 10.9949 2.75 14.7749C2.75 18.5549 2.79 20.1149 3.87 21.0249C5.05 22.0249 7.21 22.0249 11.5 22.0249C15.79 22.0249 17.94 22.0249 19.12 21.0249C20.2 20.1149 20.25 18.5449 20.25 14.7749C20.25 13.6249 20.25 12.6349 20.21 11.8149C20.2047 11.7164 20.2189 11.6178 20.2518 11.5248C20.2846 11.4318 20.3355 11.3462 20.4014 11.2729C20.4673 11.1995 20.547 11.1398 20.636 11.0973C20.725 11.0548 20.8215 11.0302 20.92 11.0249C21.0185 11.0196 21.1171 11.0338 21.2101 11.0667C21.3031 11.0995 21.3887 11.1504 21.462 11.2163C21.5354 11.2822 21.5951 11.362 21.6376 11.4509C21.6801 11.5399 21.7047 11.6364 21.71 11.7349C21.75 12.5949 21.75 13.6049 21.75 14.7749C21.75 18.6449 21.75 20.7749 20.09 22.1649C18.49 23.5249 16.15 23.5249 11.5 23.5249ZM11.25 18.7749C11.25 19.1849 11.59 19.5249 12 19.5249C12.41 19.5249 12.75 19.1849 12.75 18.7749V10.7749C12.75 10.3649 12.41 10.0249 12 10.0249C11.59 10.0249 11.25 10.3649 11.25 10.7749V18.7749ZM9 17.5249C8.59 17.5249 8.25 17.1849 8.25 16.7749V12.7749C8.25 12.3649 8.59 12.0249 9 12.0249C9.41 12.0249 9.75 12.3649 9.75 12.7749V16.7749C9.75 17.1849 9.41 17.5249 9 17.5249ZM5.25 15.7749C5.25 16.1849 5.59 16.5249 6 16.5249C6.41 16.5249 6.75 16.1849 6.75 15.7749V13.7749C6.75 13.3649 6.41 13.0249 6 13.0249C5.59 13.0249 5.25 13.3649 5.25 13.7749V15.7749ZM15 17.5249C14.59 17.5249 14.25 17.1849 14.25 16.7749V12.7749C14.25 12.3649 14.59 12.0249 15 12.0249C15.41 12.0249 15.75 12.3649 15.75 12.7749V16.7749C15.75 17.1849 15.41 17.5249 15 17.5249ZM17.25 15.7749C17.25 16.1849 17.59 16.5249 18 16.5249C18.41 16.5249 18.75 16.1849 18.75 15.7749V13.7749C18.75 13.3649 18.41 13.0249 18 13.0249C17.59 13.0249 17.25 13.3649 17.25 13.7749V15.7749Z" fill="white"/>
</svg>
