<svg width="30" height="30" viewBox="0 0 30 30" fill="none" xmlns="http://www.w3.org/2000/svg">
<g opacity="0.6">
<path fill-rule="evenodd" clip-rule="evenodd" d="M23.125 13.1562C22.7375 13.1562 22.375 12.9062 22.25 12.5438L21.925 11.6687C21.5375 10.6187 21.35 10.1437 21.0875 9.86875C20.8375 9.61875 20.3875 9.44375 19.3 9.04375L18.4375 8.73125C18.2581 8.66415 18.1028 8.54504 17.9914 8.38917C17.8801 8.23329 17.8178 8.04773 17.8125 7.85625C17.8 7.46875 18.05 7.10625 18.425 6.96875L19.3 6.64375C20.3875 6.24375 20.8375 6.06875 21.1 5.80625C21.3625 5.54375 21.5375 5.06875 21.925 4.00625L22.25 3.14375C22.3875 2.78125 22.7375 2.53125 23.125 2.53125C23.5125 2.53125 23.8625 2.76875 24 3.14375L24.325 4.00625C24.7125 5.06875 24.9 5.54375 25.1625 5.81875C25.4125 6.06875 25.8625 6.24375 26.95 6.64375L27.825 6.96875C28.1875 7.10625 28.4375 7.45625 28.4375 7.85625C28.4375 8.25625 28.1875 8.59375 27.8125 8.73125L26.9375 9.04375C25.8625 9.44375 25.4125 9.61875 25.15 9.88125C24.8875 10.1438 24.7125 10.6188 24.325 11.6813L24 12.5563C23.8625 12.9188 23.5125 13.1688 23.125 13.1688V13.1562ZM21.35 7.83125C21.775 8.03125 22.1125 8.24375 22.4 8.53125C22.7 8.83125 22.9125 9.18125 23.1125 9.60625C23.3125 9.18125 23.525 8.84375 23.8125 8.54375C24.1125 8.24375 24.45 8.03125 24.875 7.83125C24.45 7.63125 24.1125 7.41875 23.825 7.13125C23.525 6.81875 23.3125 6.48125 23.1125 6.05625C22.9125 6.48125 22.7 6.81875 22.4125 7.11875C22.1125 7.41875 21.775 7.63125 21.35 7.83125ZM14.375 29.4062C8.55 29.4062 5.6375 29.4063 3.6375 27.7063C1.5625 25.9688 1.5625 23.3062 1.5625 18.4688C1.5625 13.6313 1.5625 10.9563 3.6375 9.21875C5.6375 7.53125 8.5625 7.53125 14.375 7.53125C14.8875 7.53125 15.3125 7.95625 15.3125 8.46875C15.3125 8.98125 14.8875 9.40625 14.375 9.40625C9.0125 9.40625 6.325 9.40625 4.8375 10.6438C3.4875 11.7812 3.4375 13.7437 3.4375 18.4688C3.4375 23.1938 3.4875 25.1437 4.8375 26.2812C6.3125 27.5312 9.0125 27.5312 14.375 27.5312C19.7375 27.5312 22.425 27.5312 23.9 26.2812C25.25 25.1437 25.3125 23.1812 25.3125 18.4688C25.3125 17.0312 25.3125 15.7937 25.2625 14.7687C25.2559 14.6456 25.2737 14.5224 25.3147 14.4062C25.3558 14.2899 25.4193 14.1829 25.5017 14.0912C25.5841 13.9995 25.6838 13.9249 25.795 13.8717C25.9063 13.8186 26.0269 13.7878 26.15 13.7812C26.2731 13.7747 26.3963 13.7924 26.5126 13.8335C26.6288 13.8745 26.7359 13.9381 26.8276 14.0205C26.9193 14.1029 26.9938 14.2026 27.047 14.3138C27.1002 14.425 27.1309 14.5456 27.1375 14.6687C27.1875 15.7437 27.1875 17.0063 27.1875 18.4688C27.1875 23.3062 27.1875 25.9688 25.1125 27.7063C23.1125 29.4063 20.1875 29.4062 14.375 29.4062ZM14.0625 23.4688C14.0625 23.9813 14.4875 24.4062 15 24.4062C15.5125 24.4062 15.9375 23.9813 15.9375 23.4688V13.4688C15.9375 12.9563 15.5125 12.5312 15 12.5312C14.4875 12.5312 14.0625 12.9563 14.0625 13.4688V23.4688ZM11.25 21.9062C10.7375 21.9062 10.3125 21.4813 10.3125 20.9688V15.9688C10.3125 15.4563 10.7375 15.0312 11.25 15.0312C11.7625 15.0312 12.1875 15.4563 12.1875 15.9688V20.9688C12.1875 21.4813 11.7625 21.9062 11.25 21.9062ZM6.5625 19.7188C6.5625 20.2313 6.9875 20.6562 7.5 20.6562C8.0125 20.6562 8.4375 20.2313 8.4375 19.7188V17.2188C8.4375 16.7063 8.0125 16.2812 7.5 16.2812C6.9875 16.2812 6.5625 16.7063 6.5625 17.2188V19.7188ZM18.75 21.9062C18.2375 21.9062 17.8125 21.4813 17.8125 20.9688V15.9688C17.8125 15.4563 18.2375 15.0312 18.75 15.0312C19.2625 15.0312 19.6875 15.4563 19.6875 15.9688V20.9688C19.6875 21.4813 19.2625 21.9062 18.75 21.9062ZM21.5625 19.7188C21.5625 20.2313 21.9875 20.6562 22.5 20.6562C23.0125 20.6562 23.4375 20.2313 23.4375 19.7188V17.2188C23.4375 16.7063 23.0125 16.2812 22.5 16.2812C21.9875 16.2812 21.5625 16.7063 21.5625 17.2188V19.7188Z" fill="#6366F1"/>
</g>
</svg>
