<svg width="42" height="43" viewBox="0 0 42 43" fill="none" xmlns="http://www.w3.org/2000/svg">
<path d="M14 21.0619L23.2102 14.5204C25.2367 13.0819 26.25 12.3644 26.25 11.3669C26.25 10.3659 25.2367 9.64668 23.2102 8.20818L20.1687 6.04868C17.4667 4.13068 16.1157 3.16993 15.0587 3.71068C14 4.25318 14 5.90343 14 9.20568V21.0619ZM14 21.0619V32.9182C14 36.2204 14 37.8707 15.0587 38.4114C16.1157 38.9539 17.4667 37.9932 20.1687 36.0752L23.2102 33.9157C25.2367 32.4772 26.25 31.7544 26.25 30.7569C26.25 29.7594 25.2367 29.0419 23.2102 27.6034L14 21.0619Z" stroke="white" stroke-width="1.5"/>
<path d="M4.49757 26.1125C4.3502 26.2087 4.22366 26.3335 4.1255 26.4796C4.02734 26.6257 3.95955 26.79 3.92617 26.9628C3.89279 27.1355 3.8945 27.3133 3.93119 27.4854C3.96789 27.6575 4.03882 27.8205 4.13977 27.9646C4.24072 28.1088 4.36962 28.2311 4.51882 28.3245C4.66802 28.4178 4.83446 28.4802 5.00824 28.5079C5.18203 28.5356 5.35961 28.528 5.53043 28.4857C5.70125 28.4434 5.86181 28.3672 6.00257 28.2615L4.49757 26.1125ZM6.00257 28.2615L14.7526 22.1365L13.2476 19.9875L4.49757 26.1125L6.00257 28.2615Z" fill="white"/>
<path d="M4.49768 16.0115C4.2252 15.8071 4.04289 15.5047 3.98927 15.1683C3.93565 14.8319 4.01492 14.4878 4.21033 14.2088C4.40574 13.9297 4.70198 13.7376 5.03644 13.673C5.37091 13.6084 5.71739 13.6763 6.00268 13.8625L4.49768 16.0115ZM6.00268 13.8625L14.7527 19.9875L13.2477 22.1365L4.49768 16.0115L6.00268 13.8625Z" fill="white"/>
<path d="M33.25 8.81201C33.25 8.81201 36.75 12.487 36.75 21.062C36.75 29.637 33.25 33.312 33.25 33.312M29.75 14.062C29.75 14.062 31.5 17.387 31.5 21.062C31.5 24.737 29.75 28.062 29.75 28.062" stroke="white" stroke-width="1.5" stroke-linecap="round"/>
</svg>
