<svg width="30" height="30" viewBox="0 0 30 30" fill="none" xmlns="http://www.w3.org/2000/svg">
<g clip-path="url(#clip0_76_265)">
<path d="M25.712 23.844L25.012 23.132L24.602 23.532L24.742 24.086L25.712 23.844ZM27 29L26.758 29.97C26.9254 30.0117 27.1008 30.0094 27.267 29.9632C27.4333 29.9171 27.5847 29.8287 27.7067 29.7067C27.8287 29.5847 27.9171 29.4333 27.9632 29.267C28.0094 29.1008 28.0117 28.9254 27.97 28.758L27 29ZM19 27L18.292 26.292L17.044 27.542L18.758 27.97L19 27ZM19.05 26.95L19.756 27.658C19.9019 27.5126 19.9994 27.3257 20.0351 27.1229C20.0708 26.92 20.043 26.711 19.9554 26.5246C19.8679 26.3381 19.7249 26.1832 19.546 26.0811C19.3671 25.979 19.1611 25.9346 18.956 25.954L19.05 26.95ZM14 0V5H16V0H14ZM18 4H12V6H18V4ZM30 16C30 12.8174 28.7357 9.76515 26.4853 7.51472C24.2348 5.26428 21.1826 4 18 4V6C19.3132 6 20.6136 6.25866 21.8268 6.7612C23.0401 7.26375 24.1425 8.00035 25.0711 8.92893C25.9997 9.85752 26.7362 10.9599 27.2388 12.1732C27.7413 13.3864 28 14.6868 28 16H30ZM26.412 24.558C27.5503 23.4423 28.4541 22.1103 29.0702 20.6402C29.6864 19.1702 30.0025 17.5939 30 16H28C28.0026 17.3284 27.7393 18.6419 27.2258 19.8671C26.7124 21.0923 25.961 22.2024 25.012 23.132L26.412 24.558ZM27.972 28.758L26.68 23.6L24.74 24.084L26.028 29.24L27.972 28.758ZM18.758 27.97L26.758 29.97L27.242 28.03L19.242 26.03L18.758 27.97ZM18.342 26.244L18.292 26.292L19.708 27.706L19.756 27.658L18.342 26.244ZM18 28C18.3867 28 18.768 27.982 19.144 27.946L18.956 25.954C18.6383 25.9846 18.3192 25.9999 18 26V28ZM12 28H18V26H12V28ZM0 16C0 19.1826 1.26428 22.2348 3.51472 24.4853C5.76515 26.7357 8.8174 28 12 28V26C10.6868 26 9.38642 25.7413 8.17317 25.2388C6.95991 24.7362 5.85752 23.9997 4.92893 23.0711C3.05357 21.1957 2 18.6522 2 16H0ZM12 4C8.8174 4 5.76515 5.26428 3.51472 7.51472C1.26428 9.76515 0 12.8174 0 16H2C2 13.3478 3.05357 10.8043 4.92893 8.92893C6.8043 7.05357 9.34784 6 12 6V4ZM15 16C14.2044 16 13.4413 15.6839 12.8787 15.1213C12.3161 14.5587 12 13.7956 12 13H10C10 14.3261 10.5268 15.5979 11.4645 16.5355C12.4021 17.4732 13.6739 18 15 18V16ZM18 13C18 13.7956 17.6839 14.5587 17.1213 15.1213C16.5587 15.6839 15.7956 16 15 16V18C16.3261 18 17.5979 17.4732 18.5355 16.5355C19.4732 15.5979 20 14.3261 20 13H18ZM15 10C15.7956 10 16.5587 10.3161 17.1213 10.8787C17.6839 11.4413 18 12.2044 18 13H20C20 11.6739 19.4732 10.4021 18.5355 9.46447C17.5979 8.52678 16.3261 8 15 8V10ZM15 8C13.6739 8 12.4021 8.52678 11.4645 9.46447C10.5268 10.4021 10 11.6739 10 13H12C12 12.2044 12.3161 11.4413 12.8787 10.8787C13.4413 10.3161 14.2044 10 15 10V8ZM15 24C17.128 24 19.084 23.26 20.626 22.026L19.374 20.466C18.174 21.426 16.656 22 15 22V24ZM9.374 22.026C10.914 23.26 12.874 24 15 24V22C13.4096 22.0034 11.8659 21.4621 10.626 20.466L9.374 22.026Z" fill="#6366F1"/>
</g>
<defs>
<clipPath id="clip0_76_265">
<rect width="30" height="30" fill="white"/>
</clipPath>
</defs>
</svg>
