<svg width="30" height="30" viewBox="0 0 30 30" fill="none" xmlns="http://www.w3.org/2000/svg">
<path d="M27.1376 10.8875C28.7001 9.32497 27.9876 7.49997 27.1376 6.61247L23.3876 2.86247C21.8126 1.29997 20.0001 2.01247 19.1126 2.86247L16.9876 4.99997H13.7501C11.3751 4.99997 10.0001 6.24997 9.30009 7.68747L3.75009 13.2375V18.2375L2.86259 19.1125C1.30009 20.6875 2.01259 22.5 2.86259 23.3875L6.61259 27.1375C7.28759 27.8125 8.01259 28.0625 8.70009 28.0625C9.58759 28.0625 10.4001 27.625 10.8876 27.1375L14.2626 23.75H18.7501C20.8751 23.75 21.9501 22.425 22.3376 21.125C23.7501 20.75 24.5251 19.675 24.8376 18.625C26.7751 18.125 27.5001 16.2875 27.5001 15V11.25H26.7626L27.1376 10.8875ZM25.0001 15C25.0001 15.5625 24.7626 16.25 23.7501 16.25H22.5001V17.5C22.5001 18.0625 22.2626 18.75 21.2501 18.75H20.0001V20C20.0001 20.5625 19.7626 21.25 18.7501 21.25H13.2376L9.13759 25.35C8.75009 25.7125 8.52509 25.5 8.38759 25.3625L4.65009 21.6375C4.28759 21.25 4.50009 21.025 4.63759 20.8875L6.25009 19.2625V14.2625L8.75009 11.7625V13.75C8.75009 15.2625 9.75009 17.5 12.5001 17.5C15.2501 17.5 16.2501 15.2625 16.2501 13.75H25.0001V15ZM25.3626 9.11247L23.2376 11.25H13.7501V13.75C13.7501 14.3125 13.5126 15 12.5001 15C11.4876 15 11.2501 14.3125 11.2501 13.75V9.99997C11.2501 9.42497 11.4626 7.49997 13.7501 7.49997H18.0126L20.8626 4.64997C21.2501 4.28747 21.4751 4.49997 21.6126 4.63747L25.3501 8.36247C25.7126 8.74997 25.5001 8.97497 25.3626 9.11247Z" fill="#6366F1"/>
</svg>
