<svg width="30" height="30" viewBox="0 0 30 30" fill="none" xmlns="http://www.w3.org/2000/svg">
<path d="M18.75 17.8125H16.875V12.1875H18.75V17.8125ZM18.75 22.5V27.1875C18.75 27.4361 18.6512 27.6746 18.4754 27.8504C18.2996 28.0262 18.0611 28.125 17.8125 28.125H12.1875C11.9389 28.125 11.7004 28.0262 11.5246 27.8504C11.3488 27.6746 11.25 27.4361 11.25 27.1875V22.5H13.125V26.25H16.875V22.5H18.75ZM11.25 17.8125V12.1875H13.125V17.8125H11.25ZM18.75 7.5H16.875V3.75H13.125V7.5H11.25V2.8125C11.25 2.56386 11.3488 2.3254 11.5246 2.14959C11.7004 1.97377 11.9389 1.875 12.1875 1.875H17.8125C18.0611 1.875 18.2996 1.97377 18.4754 2.14959C18.6512 2.3254 18.75 2.56386 18.75 2.8125V7.5Z" fill="#6366F1"/>
<path d="M6.46878 7.5L4.3819 9.84375L6.4669 12.1875H22.5V7.5H6.46878ZM6.0469 5.625H23.4375C23.6862 5.625 23.9246 5.72377 24.1004 5.89959C24.2763 6.0754 24.375 6.31386 24.375 6.5625V13.125C24.375 13.3736 24.2763 13.6121 24.1004 13.7879C23.9246 13.9637 23.6862 14.0625 23.4375 14.0625H6.0469C5.91439 14.0625 5.78338 14.0345 5.6625 13.9802C5.54163 13.9259 5.43364 13.8466 5.34565 13.7475L2.42815 10.4662C2.2758 10.2947 2.19165 10.0732 2.19165 9.84375C2.19165 9.6143 2.2758 9.39282 2.42815 9.22125L5.34565 5.94C5.43364 5.84092 5.54163 5.76161 5.6625 5.70732C5.78338 5.65302 5.91439 5.62496 6.0469 5.625ZM25.9332 20.1562L23.85 22.5H7.8169V17.8125H23.8482L25.9332 20.1562ZM24.27 15.9375H6.88128C6.63264 15.9375 6.39418 16.0363 6.21836 16.2121C6.04255 16.3879 5.94378 16.6264 5.94378 16.875V23.4375C5.94378 23.6861 6.04255 23.9246 6.21836 24.1004C6.39418 24.2762 6.63264 24.375 6.88128 24.375H24.2719C24.4044 24.375 24.5354 24.347 24.6563 24.2927C24.7772 24.2384 24.8852 24.1591 24.9732 24.06L27.8906 20.7787C28.043 20.6072 28.1272 20.3857 28.1272 20.1562C28.1272 19.9268 28.043 19.7053 27.8906 19.5338L24.9732 16.2525C24.8852 16.1534 24.7772 16.0741 24.6563 16.0198C24.5354 15.9655 24.4044 15.9375 24.2719 15.9375H24.27Z" fill="#6366F1"/>
</svg>
