<svg width="40" height="40" viewBox="0 0 40 40" fill="none" xmlns="http://www.w3.org/2000/svg">
<path d="M8 20.5C8 20.8978 8.15804 21.2794 8.43934 21.5607C8.72064 21.842 9.10218 22 9.5 22C9.89782 22 10.2794 21.842 10.5607 21.5607C10.842 21.2794 11 20.8978 11 20.5C11 20.1022 10.842 19.7206 10.5607 19.4393C10.2794 19.158 9.89782 19 9.5 19C9.10218 19 8.72064 19.158 8.43934 19.4393C8.15804 19.7206 8 20.1022 8 20.5ZM18.5 20.5C18.5 20.8978 18.658 21.2794 18.9393 21.5607C19.2206 21.842 19.6022 22 20 22C20.3978 22 20.7794 21.842 21.0607 21.5607C21.342 21.2794 21.5 20.8978 21.5 20.5C21.5 20.1022 21.342 19.7206 21.0607 19.4393C20.7794 19.158 20.3978 19 20 19C19.6022 19 19.2206 19.158 18.9393 19.4393C18.658 19.7206 18.5 20.1022 18.5 20.5ZM29 20.5C29 20.8978 29.158 21.2794 29.4393 21.5607C29.7206 21.842 30.1022 22 30.5 22C30.8978 22 31.2794 21.842 31.5607 21.5607C31.842 21.2794 32 20.8978 32 20.5C32 20.1022 31.842 19.7206 31.5607 19.4393C31.2794 19.158 30.8978 19 30.5 19C30.1022 19 29.7206 19.158 29.4393 19.4393C29.158 19.7206 29 20.1022 29 20.5Z" stroke="black" stroke-width="2" stroke-linecap="round" stroke-linejoin="round"/>
</svg>
